<svg width="94" height="332" viewBox="0 0 94 332" fill="none" xmlns="http://www.w3.org/2000/svg">
<mask id="path-1-inside-1_467_93" fill="white">
<path d="M51.7401 2.15823C54.1007 -0.983947 58.3644 -0.621386 60.3582 2.76565C65.3038 11.1671 74.1098 28.8784 81.8377 58.7823C89.4781 88.3472 90.7185 105.112 90.6902 113.034C90.6877 113.746 90.5604 114.414 90.33 115.025C89.9606 116.005 89.4871 116.964 89.3517 118.002L89.0212 120.535C88.7289 122.775 89.8414 124.913 91.1842 126.73C92.5618 128.594 93.3377 130.876 93.3377 133.266V305.782C93.3377 308.608 92.2714 311.185 90.5196 313.133C90.1282 313.569 90.2383 314.377 90.1414 314.954L90.0886 315.269C89.5842 318.272 91.914 321.189 92.9778 324.042C93.2106 324.666 93.3377 325.342 93.3377 326.046C93.3376 329.214 90.7694 331.782 87.6014 331.782H19.0984C15.917 331.782 13.3377 329.203 13.3377 326.022C13.3377 325.016 13.5962 324.068 14.0513 323.243C15.4382 320.729 17.8009 318.136 17.4676 315.284C17.4169 314.851 17.3944 314.323 17.0673 314.034C14.781 312.019 13.3377 309.07 13.3377 305.782V132.58C13.3377 129.146 14.9415 125.909 17.6736 123.828C17.9563 123.612 18.1082 123.267 18.076 122.913L17.7915 119.784C17.6525 118.255 16.7598 116.895 16.2402 115.451C16.0476 114.915 15.9454 114.327 15.951 113.695C16.0139 106.594 17.6895 90.8009 26.8377 58.7823C36.0924 26.3909 46.052 9.73065 51.7401 2.15823Z"/>
</mask>
<path d="M51.7401 2.15823C54.1007 -0.983947 58.3644 -0.621386 60.3582 2.76565C65.3038 11.1671 74.1098 28.8784 81.8377 58.7823C89.4781 88.3472 90.7185 105.112 90.6902 113.034C90.6877 113.746 90.5604 114.414 90.33 115.025C89.9606 116.005 89.4871 116.964 89.3517 118.002L89.0212 120.535C88.7289 122.775 89.8414 124.913 91.1842 126.73C92.5618 128.594 93.3377 130.876 93.3377 133.266V305.782C93.3377 308.608 92.2714 311.185 90.5196 313.133C90.1282 313.569 90.2383 314.377 90.1414 314.954L90.0886 315.269C89.5842 318.272 91.914 321.189 92.9778 324.042C93.2106 324.666 93.3377 325.342 93.3377 326.046C93.3376 329.214 90.7694 331.782 87.6014 331.782H19.0984C15.917 331.782 13.3377 329.203 13.3377 326.022C13.3377 325.016 13.5962 324.068 14.0513 323.243C15.4382 320.729 17.8009 318.136 17.4676 315.284C17.4169 314.851 17.3944 314.323 17.0673 314.034C14.781 312.019 13.3377 309.07 13.3377 305.782V132.58C13.3377 129.146 14.9415 125.909 17.6736 123.828C17.9563 123.612 18.1082 123.267 18.076 122.913L17.7915 119.784C17.6525 118.255 16.7598 116.895 16.2402 115.451C16.0476 114.915 15.9454 114.327 15.951 113.695C16.0139 106.594 17.6895 90.8009 26.8377 58.7823C36.0924 26.3909 46.052 9.73065 51.7401 2.15823Z" fill="#CC9F63"/>
<path d="M51.7401 2.15823L48.542 -0.244413L48.5418 -0.244145L51.7401 2.15823ZM60.3582 2.76565L63.8053 0.736495L63.8053 0.736488L60.3582 2.76565ZM81.8377 58.7823L85.7105 57.7814V57.7814L81.8377 58.7823ZM90.6902 113.034L94.6902 113.048V113.048L90.6902 113.034ZM93.3377 133.266H97.3377V133.266L93.3377 133.266ZM90.1414 314.954L94.0862 315.617L94.0863 315.616L90.1414 314.954ZM93.3377 326.046L97.3377 326.046V326.046H93.3377ZM87.6014 331.782V335.782H87.6015L87.6014 331.782ZM13.3377 326.022L9.33771 326.021V326.022H13.3377ZM17.4676 315.284L21.4405 314.82L21.4405 314.82L17.4676 315.284ZM17.6736 123.828L20.097 127.011L20.1009 127.008L17.6736 123.828ZM15.951 113.695L11.9511 113.66L11.9511 113.66L15.951 113.695ZM26.8377 58.7823L22.9916 57.6834V57.6834L26.8377 58.7823ZM17.7915 119.784L13.808 120.147L17.7915 119.784ZM16.2402 115.451L20.0042 114.097L16.2402 115.451ZM17.0673 314.034L14.4221 317.035L17.0673 314.034ZM90.5196 313.133L93.494 315.808L90.5196 313.133ZM90.33 115.025L94.0728 116.436L90.33 115.025ZM14.0513 323.243L17.5536 325.175L14.0513 323.243ZM18.076 122.913L14.0924 123.275L18.076 122.913ZM90.0886 315.269L86.1438 314.606L90.0886 315.269ZM92.9778 324.042L89.2299 325.439L92.9778 324.042ZM91.1842 126.73L87.9673 129.108L91.1842 126.73ZM51.7401 2.15823L54.9381 4.56087C55.3353 4.03209 55.6956 3.98783 55.8864 4.00219C56.1033 4.01853 56.5335 4.15337 56.9111 4.79481L60.3582 2.76565L63.8053 0.736488C62.1891 -2.0091 59.4905 -3.74907 56.4871 -3.97522C53.4573 -4.20336 50.5055 -2.85781 48.542 -0.244413L51.7401 2.15823ZM60.3582 2.76565L56.9111 4.79481C61.6602 12.8625 70.3266 30.226 77.9649 59.7831L81.8377 58.7823L85.7105 57.7814C77.8929 27.5309 68.9473 9.47162 63.8053 0.736495L60.3582 2.76565ZM81.8377 58.7823L77.9649 59.7831C85.5433 89.108 86.717 105.523 86.6903 113.02L90.6902 113.034L94.6902 113.048C94.72 104.7 93.4129 87.5865 85.7105 57.7814L81.8377 58.7823ZM90.6902 113.034L86.6903 113.02C86.6894 113.258 86.6479 113.453 86.5872 113.614L90.33 115.025L94.0728 116.436C94.473 115.375 94.686 114.233 94.6902 113.048L90.6902 113.034ZM89.3517 118.002L85.3853 117.485L85.0549 120.017L89.0212 120.535L92.9876 121.052L93.3181 118.52L89.3517 118.002ZM91.1842 126.73L87.9673 129.108C88.8447 130.295 89.3377 131.746 89.3377 133.266L93.3377 133.266L97.3377 133.266C97.3376 130.006 96.2788 126.894 94.4011 124.353L91.1842 126.73ZM93.3377 133.266H89.3377V305.782H93.3377H97.3377V133.266H93.3377ZM93.3377 305.782H89.3377C89.3377 307.583 88.6628 309.216 87.5452 310.459L90.5196 313.133L93.494 315.808C95.8799 313.154 97.3377 309.634 97.3377 305.782H93.3377ZM90.1414 314.954L86.1967 314.292L86.1438 314.606L90.0886 315.269L94.0333 315.931L94.0862 315.617L90.1414 314.954ZM92.9778 324.042L89.2299 325.439C89.2986 325.624 89.3377 325.826 89.3377 326.046H93.3377H97.3377C97.3377 324.857 97.1227 323.709 96.7258 322.645L92.9778 324.042ZM93.3377 326.046L89.3377 326.046C89.3377 327.005 88.5603 327.782 87.6012 327.782L87.6014 331.782L87.6015 335.782C92.9786 335.782 97.3376 331.423 97.3377 326.046L93.3377 326.046ZM87.6014 331.782V327.782H19.0984V331.782V335.782H87.6014V331.782ZM19.0984 331.782V327.782C18.1261 327.782 17.3377 326.994 17.3377 326.022H13.3377H9.33771C9.33771 331.412 13.7078 335.782 19.0984 335.782V331.782ZM13.3377 326.022L17.3377 326.022C17.3377 325.709 17.4166 325.424 17.5536 325.175L14.0513 323.243L10.549 321.311C9.77567 322.712 9.33777 324.323 9.33771 326.021L13.3377 326.022ZM17.0673 314.034L19.7124 311.034C18.2498 309.744 17.3377 307.872 17.3377 305.782H13.3377H9.33771C9.33771 310.267 11.3122 314.293 14.4221 317.035L17.0673 314.034ZM13.3377 305.782H17.3377V132.58H13.3377H9.33771V305.782H13.3377ZM13.3377 132.58H17.3377C17.3377 130.395 18.3584 128.334 20.097 127.011L17.6736 123.828L15.2503 120.646C11.5246 123.483 9.33771 127.897 9.33771 132.58H13.3377ZM18.076 122.913L22.0596 122.55L21.7751 119.422L17.7915 119.784L13.808 120.147L14.0924 123.275L18.076 122.913ZM16.2402 115.451L20.0042 114.097C19.9767 114.02 19.9493 113.903 19.9508 113.731L15.951 113.695L11.9511 113.66C11.9415 114.75 12.1185 115.81 12.4763 116.804L16.2402 115.451ZM15.951 113.695L19.9508 113.731C20.0092 107.142 21.5811 91.7405 30.6838 59.8811L26.8377 58.7823L22.9916 57.6834C13.798 89.8612 12.0186 106.046 11.9511 113.66L15.951 113.695ZM26.8377 58.7823L30.6838 59.8811C39.8309 27.8661 49.5976 11.6705 54.9383 4.5606L51.7401 2.15823L48.5418 -0.244145C42.5063 7.79079 32.3538 24.9157 22.9916 57.6834L26.8377 58.7823ZM17.7915 119.784L21.7751 119.422C21.6476 118.02 21.188 116.832 20.8343 116.008C20.3895 114.972 20.2173 114.689 20.0042 114.097L16.2402 115.451L12.4763 116.804C12.7827 117.656 13.3166 118.776 13.4829 119.163C13.7401 119.763 13.7965 120.02 13.808 120.147L17.7915 119.784ZM17.4676 315.284L21.4405 314.82C21.4368 314.788 21.4336 314.757 21.4261 314.688C21.4197 314.629 21.4104 314.544 21.3989 314.451C21.3765 314.272 21.3373 313.994 21.2627 313.68C21.1244 313.098 20.7677 311.964 19.7124 311.034L17.0673 314.034L14.4221 317.035C13.694 316.393 13.5121 315.667 13.4796 315.53C13.4577 315.438 13.4542 315.392 13.4605 315.442C13.4633 315.464 13.4666 315.494 13.4724 315.548C13.4772 315.592 13.4857 315.672 13.4947 315.749L17.4676 315.284ZM90.5196 313.133L87.5452 310.459C86.4395 311.688 86.287 313.131 86.2407 313.585C86.2122 313.864 86.1982 314.166 86.1929 314.258C86.1836 314.42 86.1811 314.384 86.1965 314.293L90.1414 314.954L94.0863 315.616C94.1205 315.412 94.1405 315.229 94.1534 315.086C94.1662 314.943 94.1743 314.811 94.1797 314.717C94.1867 314.595 94.188 314.563 94.1928 314.487C94.1963 314.429 94.1986 314.404 94.1994 314.396C94.2028 314.363 94.1927 314.506 94.1223 314.728C94.0478 314.963 93.8762 315.383 93.494 315.808L90.5196 313.133ZM90.33 115.025L86.5872 113.614C86.4093 114.086 85.6006 115.835 85.3853 117.485L89.3517 118.002L93.3181 118.52C93.3737 118.094 93.512 117.924 94.0728 116.436L90.33 115.025ZM14.0513 323.243L17.5536 325.175C17.824 324.685 18.1544 324.169 18.5839 323.5C18.9848 322.875 19.4746 322.112 19.9129 321.312C20.7671 319.752 21.7525 317.488 21.4405 314.82L17.4676 315.284L13.4946 315.749C13.516 315.932 13.4867 316.391 12.8962 317.469C12.6121 317.988 12.272 318.523 11.8503 319.18C11.4571 319.793 10.9721 320.544 10.549 321.311L14.0513 323.243ZM17.6736 123.828L20.1009 127.008C21.4766 125.957 22.2163 124.274 22.0596 122.55L18.076 122.913L14.0924 123.275C14.0001 122.259 14.4359 121.268 15.2464 120.649L17.6736 123.828ZM90.0886 315.269L86.1438 314.606C85.6898 317.31 86.558 319.697 87.2926 321.342C87.6649 322.176 88.1027 323.025 88.4276 323.676C88.7819 324.386 89.0438 324.94 89.2299 325.439L92.9778 324.042L96.7258 322.645C96.3799 321.717 95.9517 320.837 95.5857 320.104C95.1904 319.311 94.8777 318.708 94.5977 318.081C94.0276 316.804 93.983 316.231 94.0333 315.931L90.0886 315.269ZM89.0212 120.535L85.0549 120.017C84.5523 123.869 86.4851 127.102 87.9673 129.108L91.1842 126.73L94.4011 124.353C93.1978 122.725 92.9055 121.682 92.9876 121.052L89.0212 120.535Z" fill="black" mask="url(#path-1-inside-1_467_93)"/>
<path d="M56.2718 2.25193C56.2054 2.13925 56.096 2.05724 55.9687 2.02343C55.8414 1.98965 55.7066 2.00685 55.593 2.07174C55.4794 2.13664 55.3962 2.24407 55.3606 2.37092C55.3251 2.49774 55.3402 2.63359 55.4036 2.74807C55.4036 2.74807 55.4036 2.74807 55.4036 2.74807C56.2717 4.32063 56.9987 6.05539 57.6274 7.86503C66.2812 40.6442 62.9475 75.5195 60.7986 109.217C60.7278 110.081 60.6742 110.682 60.5991 111.557C60.5053 112.62 57.4363 113.613 55.8612 114.448C60.1789 114.816 64.4965 115.184 68.8142 115.552C67.41 114.345 64.5245 112.932 64.5884 111.85C64.6423 110.966 64.6744 110.36 64.724 109.488C65.9201 75.5167 68.4123 40.6064 58.7128 7.47191C58.019 5.63403 57.2227 3.86586 56.2718 2.25193Z" fill="black"/>
<path d="M62.3924 122.168C62.1721 122.023 61.9025 121.971 61.6432 122.024C61.384 122.076 61.1564 122.229 61.0101 122.448C60.8638 122.668 60.8106 122.936 60.8617 123.196C60.9129 123.455 61.0643 123.685 61.283 123.832C61.283 123.832 61.283 123.832 61.283 123.832C61.21 123.78 61.2516 123.795 61.311 123.906C61.3414 123.961 61.3782 124.036 61.4172 124.129C61.4524 124.215 61.4669 124.255 61.4925 124.327C61.5871 124.594 61.6858 124.952 61.7799 125.385C61.934 126.106 62.0396 126.79 62.1538 127.695C62.3275 129.085 62.4718 130.905 62.5581 132.371C63.6255 190.165 59.4236 248.167 54.7757 305.737C54.6544 307.044 54.522 308.44 54.3973 309.704C54.2268 311.434 51.0403 313.31 49.373 314.823C53.6828 315.274 57.9926 315.726 62.3024 316.177C60.9931 314.282 58.2299 311.811 58.3801 310.074C58.4911 308.8 58.6099 307.396 58.7172 306.081C62.7434 248.247 66.3485 190.415 64.6565 132.233C64.5513 130.743 64.3874 128.886 64.1883 127.431C64.0595 126.484 63.9404 125.759 63.7571 124.944C63.6452 124.452 63.5245 124.022 63.3858 123.643C63.3477 123.541 63.326 123.483 63.2676 123.345C63.2023 123.193 63.1323 123.049 63.0533 122.911C62.8938 122.639 62.7058 122.38 62.3924 122.168Z" fill="black"/>
<path d="M19.9002 113.5C19.5252 113.5 19.1502 113.5 18.7752 113.5C18.7445 114.412 19.4595 115.038 20.0073 115.353C20.6057 115.698 21.1502 115.881 21.7542 116.057C34.9337 118.352 47.8965 116.962 60.8711 116.971C63.901 116.921 66.9465 116.826 69.9501 116.668C74.5622 116.411 79.1542 115.895 83.6793 114.714C84.8159 114.395 85.8906 114.111 87.0893 113.503C86.9216 113.168 86.7539 112.832 86.5862 112.497C85.6779 112.718 84.4522 112.846 83.3633 112.942C78.8759 113.305 74.3452 113.419 69.792 113.672C66.8263 113.828 63.8098 113.942 60.8043 114.029C47.8346 114.203 34.6702 116.055 22.0861 114.731C21.0586 114.528 19.8831 114.061 19.9002 113.5Z" fill="black"/>
<path d="M18.9433 125.053C19.5396 125.351 20.1358 125.649 20.7321 125.947C20.6456 126.101 20.7836 125.945 20.9763 125.875C21.1539 125.798 21.3839 125.717 21.6342 125.644C22.1091 125.506 22.6453 125.392 23.1768 125.295C27.5204 124.573 32.0726 124.381 36.5896 124.137C42.1455 123.868 47.7176 123.809 53.2977 123.899C63.6971 124.242 74.2622 122.855 84.2637 124.034C85.3087 124.251 86.4068 124.603 86.8493 125.279C87.1749 125.093 87.5005 124.907 87.8261 124.721C87.0258 123.401 85.7183 123.058 84.586 122.706C74.0468 120.741 63.6964 121.702 53.3777 121.101C47.7347 120.875 42.094 120.867 36.4424 121.14C31.8297 121.394 27.258 121.783 22.6414 122.996C22.0663 123.158 21.4777 123.343 20.8966 123.582C20.7389 123.646 20.5893 123.712 20.4474 123.781C20.2899 123.856 20.1294 123.94 19.9848 124.027C19.6524 124.249 19.3112 124.385 18.9433 125.053Z" fill="black"/>
<path d="M19.8357 311.738C19.5037 311.913 19.1717 312.087 18.8398 312.262C19.1625 312.786 19.4533 312.867 19.752 313.046C20.031 313.192 20.3304 313.315 20.6065 313.418C21.1774 313.63 21.7386 313.795 22.3124 313.95C33.538 316.51 44.9595 317.038 56.3785 316.929C61.1111 316.839 65.8253 316.753 70.5736 316.576C75.1836 316.361 79.7815 316.183 84.4793 314.992C85.6331 314.639 86.877 314.327 88.0307 313.221C87.5687 312.74 87.1067 312.26 86.6447 311.779C86.0936 312.214 84.9727 312.512 83.9476 312.693C79.64 313.375 75.0116 313.372 70.4596 313.578C65.747 313.754 61.0324 313.887 56.2969 314.071C45.0839 314.408 33.665 314.364 22.6221 312.618C22.0668 312.509 21.5261 312.388 21.0038 312.235C20.752 312.161 20.4857 312.071 20.2674 311.977C20.0429 311.891 19.8158 311.717 19.8357 311.738Z" fill="black"/>
<path d="M17.6306 321.333C18.102 321.804 18.5734 322.276 19.0448 322.747C18.9937 322.785 19.2236 322.655 19.4198 322.607C19.6567 322.538 19.8915 322.49 20.1636 322.445C20.6906 322.358 21.2633 322.303 21.8203 322.264C32.8132 321.896 44.0925 322.994 55.3377 323.007C59.6626 323.029 63.9759 322.995 68.2864 322.979C73.9985 322.991 79.7422 322.679 85.326 322.971C86.4441 323.058 87.6676 323.175 88.4679 323.555C88.7144 323.185 88.961 322.815 89.2075 322.445C87.9794 321.613 86.7843 321.413 85.5844 321.135C79.7751 320.049 74.0178 319.994 68.2752 319.979C63.9503 319.995 59.6427 320.051 55.3377 320.073C44.1815 320.181 33.0375 319.335 21.6305 320.136C21.0336 320.201 20.4122 320.282 19.7826 320.411C19.1272 320.587 18.5349 320.571 17.6306 321.333Z" fill="black"/>
<path d="M64.3295 116.681C63.0017 116.56 61.6738 116.44 60.3459 116.319C60.404 116.417 60.4587 116.514 60.5102 116.611C60.9729 117.485 61.1668 118.334 61.0918 119.159C61.0168 119.984 60.6729 120.785 60.0601 121.561C59.9921 121.647 59.9206 121.733 59.8459 121.819C61.1738 121.94 62.5016 122.06 63.8295 122.181C63.7714 122.083 63.7167 121.986 63.6653 121.889C63.2025 121.015 63.0086 120.166 63.0836 119.341C63.1586 118.516 63.5025 117.715 64.1153 116.939C64.1834 116.853 64.2548 116.767 64.3295 116.681Z" fill="black"/>
<path d="M58.4023 316.272C56.4105 316.091 54.4187 315.909 52.427 315.728C52.5182 315.829 52.6045 315.929 52.6858 316.029C53.4175 316.928 53.7458 317.789 53.6708 318.614C53.5958 319.439 53.1174 320.228 52.2358 320.979C52.1378 321.063 52.0349 321.146 51.9269 321.228C53.9187 321.409 55.9105 321.591 57.9023 321.772C57.811 321.671 57.7248 321.571 57.6435 321.471C56.9118 320.572 56.5835 319.711 56.6585 318.886C56.7335 318.061 57.2118 317.272 58.0935 316.521C58.1914 316.437 58.2944 316.354 58.4023 316.272Z" fill="black"/>
<path d="M58.7395 321.515C57.446 321.838 56.1525 322.162 54.859 322.485C54.9408 322.539 55.0321 322.656 55.1137 322.752C55.8579 323.67 56.2811 324.768 56.2981 325.837C56.2989 325.891 56.2986 325.946 56.2972 326C56.2769 326.914 55.7238 327.846 54.8922 328.32C54.8035 328.362 54.675 328.452 54.6352 328.391C55.7446 329.13 56.854 329.87 57.9634 330.609C58.0611 330.335 58.0596 330.199 58.0926 330.012C58.2761 328.54 58.3191 327.288 58.3014 326C58.3 325.936 58.2988 325.872 58.2979 325.808C58.275 324.558 58.3839 323.351 58.6547 322C58.6828 321.844 58.7185 321.71 58.7395 321.515Z" fill="black"/>
<path d="M89.5079 305.966C89.4329 306.227 88.7436 307.708 88.0465 308.905C87.9808 309.018 88.2623 307.826 88.4604 307.202C88.6907 306.475 88.0715 308.45 87.2682 310.782C87.1741 311.055 87.5938 309.429 87.8794 308.451C88.1651 307.473 88.2725 307.18 88.3392 306.963C88.4059 306.745 88.4285 306.613 87.9915 307.693C87.5544 308.773 86.657 311.069 86.5249 311.138C86.3928 311.206 87.0531 308.978 87.4738 307.694C87.8944 306.41 88.0553 306.137 88.2346 305.902C88.4139 305.667 88.6068 305.477 88.2041 306.951C87.8013 308.425 86.7972 311.569 86.3081 313.162C85.8191 314.756 85.8755 314.703 86.4118 313.139C86.948 311.576 87.9623 308.502 88.569 306.769C89.2874 304.717 89.6193 304.309 89.7993 304.089C89.9365 303.921 89.674 305.005 89.0609 307.092C88.7879 308.02 88.4575 308.643 88.313 308.885C88.1686 309.127 88.1855 308.958 88.4297 307.743C88.6738 306.528 89.1446 304.272 89.4352 302.981C89.7257 301.69 89.8219 301.431 89.2837 302.737C88.7456 304.044 87.5702 306.924 87.0855 307.624C86.5746 308.363 87.1725 304.907 87.299 304.66C87.3197 304.62 87.3501 304.89 87.0029 306.394C86.6557 307.898 85.955 310.664 85.6252 312.013C85.2953 313.363 85.3575 313.214 85.5408 312.539C85.7241 311.864 86.0266 310.668 86.2276 309.96C86.4287 309.252 86.5192 309.068 86.3336 310.053C86.1481 311.038 85.6837 313.198 85.6436 313.267C85.6036 313.335 86.0018 311.246 86.2951 309.954C86.6906 308.212 87.1907 307.464 87.5916 306.924C87.7516 306.708 87.8106 306.603 87.6897 307.038C87.5687 307.473 87.2628 308.45 87.3633 307.864C87.4638 307.278 87.9801 305.1 88.2913 303.972C88.6026 302.843 88.6931 302.832 88.7249 302.896C88.816 303.082 88.6392 303.38 88.5463 303.623C88.5042 303.733 88.4994 303.826 88.6866 303.609C89.3004 302.898 89.7768 302.201 89.9224 302.092C90.0535 301.993 89.7629 302.47 89.6644 302.512C89.4954 302.584 89.5347 301.854 89.5658 301.349C89.6432 300.088 87.7694 304.052 87.9453 303.808C88.0641 303.643 88.2233 303.38 88.3362 303.218C88.7726 302.591 86.8103 305.986 86.8195 306C86.888 306.101 87.0558 305.561 87.1942 305.331C87.3326 305.102 87.4288 304.987 87.2298 305.497C87.0308 306.007 86.5338 307.146 86.2348 307.906C85.8056 308.997 85.7439 309.502 85.7714 309.642C85.8072 309.824 86.2542 308.636 86.6042 307.408C86.7316 306.961 86.7683 306.875 86.4919 308.007C86.2154 309.139 85.6275 311.492 85.3558 312.644C85.084 313.795 85.1463 313.674 85.1868 313.546C85.2672 313.291 85.2617 312.721 85.1826 312.749C83.4609 313.347 84.7887 316.097 84.8284 316.297C84.8406 316.359 84.9246 316.303 84.9737 316.199C85.4633 315.16 85.2738 313.483 85.3337 313.306C85.3474 313.266 85.3767 313.351 85.356 314.434C85.3352 315.517 85.2763 317.602 85.2545 318.718C85.2326 319.834 85.2496 319.919 85.2951 319.943C85.3406 319.967 85.4141 319.926 85.4746 319.828C85.827 319.254 85.6871 318.052 85.7016 317.903C85.7499 317.406 85.7981 320.066 85.8903 320.494C85.9909 320.961 86.2303 318.543 86.3106 317.245C86.3517 316.58 86.4816 315.91 86.4805 315.962C86.4614 316.815 86.2311 318.377 86.2336 319.401C86.2338 319.492 86.4106 318.759 86.4171 317.283C86.4217 316.262 86.2796 314.69 86.2064 314.06C86.173 313.772 85.7943 315.285 85.4071 316.373C85.3636 316.495 85.3014 315.116 85.2751 315.322C85.2488 315.527 85.1762 317.197 85.0463 318.754C84.9165 320.312 84.7318 321.705 84.645 322.515C84.5583 323.326 84.5753 323.512 84.6095 323.505C84.8337 323.459 84.7324 322.273 84.7187 320.973C84.7135 320.48 84.7366 320.325 84.8708 321.236C85.0049 322.146 85.2557 324.126 85.4132 325.116C85.5707 326.106 85.6272 326.048 85.6867 325.581C85.8567 324.248 85.9629 322.909 86.1387 322.191C86.2089 321.903 86.2887 321.786 86.3434 321.771C86.4636 321.739 86.7976 323.285 87.3186 325.39C87.5098 326.162 87.5956 326.324 87.6597 326.437C87.7238 326.549 87.7747 326.606 87.6768 325.596C87.5788 324.586 87.3304 322.508 87.2053 321.389C87.0802 320.269 87.0859 320.172 87.22 320.929C87.3542 321.687 87.6167 323.303 87.8015 324.296C87.9864 325.289 88.0857 325.61 88.1179 325.639C88.302 325.801 87.8125 324.094 87.5326 323.14C87.5143 323.078 87.7443 324.374 87.8289 324.518C87.9134 324.663 87.8449 323.745 87.835 323.328C87.8164 322.542 88.391 326.112 88.3441 326.038C87.9111 325.353 88.0664 324.461 88.1002 324.245C88.1231 324.099 88.4251 325.574 88.5826 327.064C88.6257 327.471 88.4372 327.18 88.3371 326.945C88.1695 326.552 88.1379 326.205 88.1716 325.903C88.1872 325.764 88.296 325.671 88.408 325.62C88.8977 325.4 89.3418 325.746 89.4991 325.869C89.5699 325.924 89.5827 326.008 89.5771 326.097C89.5648 326.292 89.3921 326.501 89.1114 326.74C88.9469 326.88 88.7099 327.025 88.656 326.668C88.4724 325.452 88.9497 324.451 89.1207 324.346C89.1949 324.3 89.2916 324.4 89.3438 324.56C89.6501 325.5 89.228 326.573 88.8459 327.02C88.677 327.218 88.3053 327.055 87.9981 326.913C87.6771 326.765 87.4678 326.452 87.3227 326.104C86.918 325.133 87.6043 323.568 88.1087 322.849C88.1968 322.724 88.3432 322.709 88.4384 322.717C88.5336 322.724 88.6071 322.786 88.6664 322.94C88.8137 323.323 88.7772 324.127 88.6356 325.195C88.3756 327.154 87.3979 327.793 87.0906 327.939C86.8225 328.067 86.5086 327.867 86.2448 327.665C85.9529 327.441 85.838 326.979 85.7411 326.422C85.4528 324.764 85.9584 323.411 86.2113 323.1C86.3248 322.96 86.4942 322.941 86.6588 322.937C86.8234 322.933 87.0001 322.967 87.158 323.064C87.4884 323.266 87.7115 323.865 87.9422 324.707C88.449 326.556 88.0473 327.6 87.8462 327.955C87.7557 328.114 87.6095 328.18 87.481 328.207C87.3525 328.233 87.2259 328.205 87.0946 328.129C86.8094 327.966 86.5544 327.572 86.2786 326.995C85.925 326.255 85.794 325.269 85.6678 324.367C85.5722 323.683 85.7801 323.258 86 323.046C86.1072 322.943 86.2485 322.898 86.3841 322.882C86.5196 322.867 86.6562 322.895 86.7947 322.981C87.5426 323.443 87.5982 325.234 87.455 326.225C87.4084 326.547 87.0564 326.67 86.8129 326.735C86.6982 326.766 86.5924 326.75 86.5102 326.715C86.4281 326.681 86.3706 326.617 86.3237 326.501C86.2134 326.228 86.282 325.17 86.4498 323.693C86.5541 322.775 86.8857 322.36 87.1202 322.157C87.2239 322.067 87.3204 322.034 87.3841 322.093C87.5591 322.253 87.4351 323.594 87.2555 324.453C86.8543 326.37 86.9694 320.69 87.0397 321.506C87.1167 322.4 87.0911 324.279 87.0931 325.302C87.0951 326.326 87.0779 326.439 86.8186 325.361C86.5593 324.283 86.0585 322.009 85.7903 320.748C85.5221 319.487 85.5017 319.306 85.5319 319.417C85.6712 319.928 85.7821 321.632 85.8446 323.041C85.9462 325.335 85.9434 320.08 86.0916 319.94C86.1583 319.877 86.2397 319.87 86.3223 320.007C86.561 320.402 86.6959 321.572 86.8091 322.314C86.8231 322.406 86.7084 321.174 86.6531 321.225C86.5978 321.276 86.5949 322.456 86.5849 322.849C86.5748 323.241 86.5575 322.809 86.5397 322.365" stroke="black" stroke-linecap="round"/>
<path d="M89.9902 298.379C89.7251 298.868 88.7263 301.123 88.0628 302.685C87.1174 304.911 85.4169 307.979 83.8659 309.875C83.5244 310.292 83.263 310.429 83.6801 310.147C86.4812 308.259 87.012 307.47 87.2738 306.989C88.0866 305.495 85.0686 311.124 84.3665 311.874C84.1921 312.06 83.934 312.161 83.8134 312.062C83.6927 311.964 83.6899 311.633 83.8512 311.272C84.6561 309.472 86.1978 308.622 86.352 308.455C88.0611 306.597 83.3527 311.792 83.1154 311.733C81.3343 311.284 84.3234 309.168 84.618 308.896C84.9242 308.613 83.2893 310.791 82.0465 312.2C80.8071 313.605 83.8143 309.164 84.0434 309.231C84.9536 309.497 83.2448 312.065 82.682 313.717C82.265 314.942 84.7314 310.402 85.4637 309.884C86.4347 309.198 84.3239 312.47 83.3094 313.649C83.0161 313.99 84.1769 311.895 84.8319 310.72C86.0264 308.578 80.6101 315.43 80.4232 315.461C78.9053 315.715 82.2695 312.794 83.3126 311.796C83.3277 311.782 81.8448 313.509 80.2045 315.498C80.0093 315.735 81.0618 314.449 82.1199 313.654C84.5601 311.819 79.3219 318.063 79.3741 317.779C79.6914 316.058 80.7426 314.637 81.2589 314.086C81.4892 313.841 81.6939 313.701 81.694 313.852C81.6968 316.581 78.8317 319.323 78.8378 319.585C78.8787 321.337 80.9296 315.442 81.1169 315.336C81.5064 315.118 79.5122 317.427 77.7373 319.017C77.2968 319.412 78.058 317.308 78.5324 316.766C78.7768 316.487 79.1694 316.34 79.3288 316.393C79.6731 316.507 78.9576 318.167 78.9328 319.145C78.8745 321.454 82.078 315.921 82.0839 316.373C82.0917 316.972 81.3154 318.197 81.2117 318.33C80.636 319.071 82.1429 315.982 82.6018 315.306C82.7997 315.015 82.9957 314.878 82.7981 315.684C82.6006 316.49 82.0212 318.256 82.0906 318.339C83.2191 319.695 83.8002 314.853 83.9389 315.1C84.7308 316.509 83.6107 318.704 83.741 319.685C83.9398 321.183 84.9378 316.69 85.4382 315.801C86.2741 314.316 85.0596 320.775 85.1327 320.541C85.698 318.731 85.6005 316.979 85.8052 316.658C85.9555 316.423 85.978 318.715 85.5455 320.938C85.4245 321.56 84.1429 319.802 83.5578 319.263C82.9887 318.74 83.0527 320.765 82.6952 321.093C82.5024 321.27 82.1557 321.291 81.8946 321.234C81.6335 321.177 81.4351 320.995 81.2585 320.785C81.0818 320.576 80.933 320.344 81.0105 320.158C81.6662 318.586 84.9197 320.359 85.1489 320.268C86.2765 319.819 82.125 318.882 80.36 318.798C80.0143 318.782 79.7502 318.871 79.76 318.945C79.9861 320.639 83.8059 319.611 83.9933 319.742C84.3258 319.974 81.8656 320.136 79.8082 320.349C79.1886 320.413 79.474 320.659 79.7785 320.808C81.0111 321.411 82.2379 321.22 85.4785 321.681C86.6601 321.849 82.731 321.756 82.3389 321.507C82.1334 321.376 82.0956 321.026 82.1017 320.766C82.1079 320.505 82.2054 320.29 82.6215 320.252C83.0375 320.215 83.7691 320.361 83.5605 320.362C82.1733 320.368 80.6608 320.077 81.2291 320.142C82.1072 320.243 84.2003 320.272 84.3436 320.354C84.487 320.437 82.6217 320.518 81.8314 320.477C81.0412 320.436 81.3826 320.271 81.9001 320.153C82.4177 320.034 83.101 319.968 83.1223 319.851C83.2478 319.163 80.8944 319.328 79.5783 319.056C79.1309 318.963 79.2822 318.523 79.2329 318.483C78.9681 318.264 78.4312 319.457 77.9792 320.064C77.8765 320.202 78.0369 319.445 78.2741 319.062C78.396 318.865 78.5926 318.711 78.6267 318.781C78.7976 319.128 78.1606 319.672 77.7919 319.835C77.5173 319.956 77.9325 318.983 78.1862 318.474C78.3055 318.235 78.4887 318.081 78.5552 318.15C78.8181 318.423 78.3864 319.105 78.1844 319.399C77.7871 319.978 78.9986 317.614 79.8934 317.121C80.1777 316.965 79.5186 317.971 79.4292 317.977C76.9205 318.122 81.6101 314.909 81.9948 314.695C82.2526 314.552 81.814 315.498 81.6936 315.701C81.1061 316.69 83.2602 313.385 84.3461 312.421C84.6112 312.185 84.9692 312.062 85.2591 311.96C85.5489 311.858 85.7928 311.825 85.844 312.061C86.3097 314.204 84.1242 316.209 84.0543 316.785C84.0219 317.053 85.1465 315.753 85.897 314.904C86.8407 313.836 85.5013 317.87 85.2863 318.313C85.1825 318.527 84.6413 318.266 84.5415 318.27C84.4416 318.275 84.6849 318.437 84.6447 318.513C84.4681 318.845 83.701 318.505 83.3406 318.616C82.1501 318.983 83.3206 320.761 83.1214 321.18C83.0226 321.387 82.7237 321.452 82.4885 321.411C81.9935 321.325 81.6348 320.521 81.3749 319.932C81.0809 319.265 81.7212 321.51 81.6296 321.812C81.4542 322.389 80.4526 321.244 80.0594 321.364C79.2298 321.618 80.22 323.139 80.3769 324.133C80.5605 325.296 80.3016 326.291 79.9178 327.27C79.8257 327.505 79.6682 327.688 79.7866 327.647C81.0213 327.221 81.6585 325.108 81.9759 324.284C82.0792 324.016 81.9595 325.368 81.7608 325.043C81.5621 324.717 81.1817 323.245 80.9775 322.723C80.895 322.512 80.8535 323.778 81.0503 324.608C81.0808 324.736 81.1993 323.485 81.2386 322.36C81.2819 321.12 82.0671 325.294 82.109 326.81C82.1139 326.989 82.0837 325.654 82.0913 325.264C82.1124 324.181 81.965 328.629 81.8319 328.767C81.7468 328.855 81.6328 328.263 81.6862 327.908C81.8745 326.657 83.1492 326.528 83.3454 326.3C83.5336 326.082 82.4628 326.894 81.9755 327.146C81.483 327.4 82.2415 325.765 82.5036 325.148C82.6268 324.858 82.7657 324.63 82.6421 325.129C82.5185 325.628 82.1373 326.864 82.1278 326.782C81.9503 325.228 83.0726 323.464 83.4006 323.24C84.9936 322.152 83.5972 327.009 83.679 327.04C84.4593 327.332 83.8603 324.35 83.9009 323.468C83.9164 323.131 84.0228 325.725 84.0316 326.567C84.0374 327.114 83.3229 325.386 82.5365 323.341C82.387 322.952 83.1679 324.479 83.7585 326.283C84.2064 327.652 82.2224 322.922 82.3003 322.675C82.983 320.515 85.317 327.52 85.6233 328.807C85.9736 330.278 84.4959 325.564 84.59 324.239C84.6086 323.978 84.8994 323.854 85.0486 324.717C85.1979 325.58 85.2954 327.46 85.2217 327.672C84.7827 328.936 84.6277 324.469 84.7002 324.08C84.7677 323.719 85.2666 324.974 85.3979 325.722C85.5248 326.446 85.3982 327.052 85.1323 327.437C84.995 327.636 84.668 327.676 84.4571 327.545C84.2461 327.413 84.1138 327.066 84.0863 326.779C84.0588 326.493 84.1401 326.278 84.2795 326.117C84.4189 325.957 84.614 325.858 84.8283 325.847C85.0426 325.837 85.2702 325.918 85.3623 326.114C85.4545 326.311 85.4043 326.62 85.1469 326.901C84.545 327.558 83.4203 327.726 82.7648 327.783C82.5972 327.797 84.2268 328.114 84.9394 328.622C85.188 328.8 83.0702 328.575 82.3416 328.391C81.613 328.206 81.7916 328.008 82.0543 327.864C82.3169 327.721 82.6583 327.638 82.718 327.644C82.7777 327.65 82.5453 327.748 82.4247 327.624C82.304 327.501 82.302 327.153 82.3985 326.85C82.4951 326.547 82.6902 326.299 82.8963 326.097C83.1025 325.895 83.3138 325.746 83.1828 326.059C82.6995 327.215 81.879 328.168 81.5453 328.306C81.1008 328.49 81.3407 326.882 81.4225 326.085C81.4303 326.01 81.2559 326.931 81.1049 327.536C81.0526 327.745 81.4125 326.233 81.7653 325.275C81.8433 325.063 81.8409 325.466 81.7824 325.788C81.7238 326.11 81.6411 326.354 81.5405 326.081C81.4399 325.808 81.3239 325.012 81.5564 325.244C81.789 325.476 82.3737 326.761 82.6335 326.736C82.8934 326.712 82.8107 325.339 82.939 324.901C83.3986 323.33 86.234 327.763 88.1777 328.974C88.5195 329.187 88.7642 329.238 88.6831 329.189C88.6021 329.14 88.2052 328.958 87.9591 328.757C87.713 328.556 87.6297 328.341 87.7088 328.139C87.7878 327.937 88.0317 327.756 88.2711 327.702C88.5105 327.649 88.7381 327.73 88.8879 327.902C89.0376 328.074 89.1027 328.334 89.07 328.334C88.7561 328.337 88.4711 326.915 88.0687 326.051C88.0242 325.955 88.0613 326.99 87.8716 327.128C87.1772 327.635 86.6255 325.675 86.5489 325.25C86.5116 325.043 86.6522 324.841 86.7754 324.837C87.5924 324.806 87.6381 326.178 87.6287 326.471C87.2072 326.302 86.7013 325.516 86.5069 324.761C86.4945 324.584 86.6571 324.828 87.3665 325.326" stroke="black" stroke-linecap="round"/>
<path d="M86.2252 113.82V113.844" stroke="black" stroke-linecap="round"/>
<path d="M86.2372 113.893C86.225 114.036 86.0867 114.437 85.8624 114.812C85.7023 115.08 85.5229 115.247 85.478 115.371C85.4528 115.441 85.4573 115.535 85.479 115.57C85.5007 115.604 85.5484 115.58 85.6007 115.517C85.7261 115.365 85.8942 114.914 86.0662 114.425C86.27 113.845 85.0487 116.159 85.0699 116.205C85.2747 116.647 85.7354 114.755 85.9355 114.276C85.9419 114.26 85.9437 114.35 85.7575 114.977C85.5714 115.605 85.2074 116.786 85.0159 117.442C84.8243 118.099 84.8162 118.195 84.8404 118.147C84.9558 117.92 85.0329 117.15 85.1394 116.828C85.214 116.602 85.2447 118.096 85.2854 118.561C85.3261 119.025 85.3539 118.888 85.3823 118.621C85.4107 118.355 85.4389 117.965 85.4713 117.706C85.5038 117.446 85.5395 117.329 85.5624 117.729C85.6378 119.048 85.5952 120.098 85.5729 120.198C85.4395 120.798 85.1527 118.725 85.1681 118.725C85.5852 118.717 85.3486 119.638 85.3746 119.874C85.4327 120.401 85.1608 118.389 85.0706 118.063C84.9584 117.658 85.0883 117.137 85.317 116.501C85.5367 115.891 85.6453 115.256 85.8608 114.802C85.8967 114.727 85.9113 114.665 85.8892 114.61C85.8399 114.487 85.6834 114.444 85.5431 114.426C85.2166 114.383 84.9377 114.531 84.6412 114.562C84.5618 114.57 84.4685 114.556 84.4543 114.57C84.252 114.767 85.0582 114.732 85.1743 114.782C85.3435 114.854 85.3912 115.112 85.4794 115.265C85.6464 115.552 85.3775 115.915 85.3144 116.015C85.2826 116.066 85.2392 116.107 85.2043 116.063C84.9301 115.716 85.0715 115.256 84.937 115.041C84.9006 114.982 84.8516 114.921 84.8227 114.927C84.5568 114.986 84.9287 115.678 84.9817 116.056C85.0325 116.419 84.8756 117.038 84.8329 117.464C84.8024 117.769 84.8137 118.026 84.9057 118.267C85.034 118.603 85.1625 118.932 85.2289 119.24C85.3708 119.575 85.5598 119.872 85.6278 119.97C85.6602 120.021 85.688 120.072 85.7407 120.258" stroke="black" stroke-linecap="round"/>
<path d="M86.424 113.318C86.424 113.292 86.5898 112.801 86.8461 112.048C87.0291 111.51 87.0602 110.802 87.1143 110.485C87.1284 110.403 87.1118 110.323 87.09 110.293C86.9713 110.127 86.8232 111.042 86.6049 111.803C86.3419 112.721 86.1582 112.852 86.033 112.985C85.9041 113.123 85.7707 113.198 85.7456 113.211C85.589 113.297 86.0343 112.903 86.1456 112.743C86.1697 112.708 86.1773 112.663 86.1237 112.697C85.7468 112.938 85.6307 113.06 85.4552 113.084C85.3357 113.1 85.2353 113.128 85.1961 113.128C84.949 113.128 85.8094 112.821 86.1345 112.451C86.2644 112.303 86.3984 112.077 86.6456 111.754C86.8928 111.431 87.237 111.009 87.4659 110.694C87.6947 110.378 87.7977 110.181 87.8684 110.059C87.939 109.938 87.9742 109.897 88.0333 109.839" stroke="black" stroke-linecap="round"/>
<path d="M84.1865 114.897C84.2751 115.08 84.3937 115.292 84.4877 115.641C84.5371 115.825 84.6034 116.35 84.7257 117.114C84.8159 117.678 84.7618 118.025 84.779 118.229C84.7965 118.434 84.7417 118.762 84.6528 119.193C84.5115 119.877 84.2897 120.144 84.1336 120.426C83.8731 120.897 83.618 121.072 83.4499 121.254C83.2414 121.481 83.0645 121.638 83.0181 121.702C82.9953 121.734 82.9791 121.766 83.2227 121.545C83.4663 121.324 83.9715 120.849 84.239 120.586C84.5066 120.324 84.5213 120.289 84.5288 120.299C84.5687 120.352 84.5193 120.551 84.4756 120.81C84.3542 121.53 83.8877 122.121 83.8673 122.133C83.8524 122.142 83.8862 122.051 84.018 121.742C84.1498 121.433 84.3933 120.883 84.574 120.518C84.7548 120.153 84.8654 119.991 84.9617 119.875C85.058 119.759 85.1367 119.695 85.1039 119.964C85.0711 120.234 84.9246 120.84 84.8068 121.27C84.689 121.7 84.6044 121.937 84.5853 121.981C84.5404 122.086 84.7022 121.65 84.775 121.541C84.8078 121.492 84.8453 121.464 84.8703 121.482C85.1378 121.672 84.8223 122.31 84.7356 122.543C84.7049 122.626 84.3648 122.418 84.0568 122.163C84.0351 122.145 84.3266 122.322 84.5278 122.445C84.7291 122.568 84.8415 122.623 84.5206 122.576C84.1998 122.529 83.4423 122.378 82.9966 122.295C82.5509 122.212 82.44 122.201 82.4335 122.191C82.17 121.764 83.5962 122.262 83.6084 122.296C83.7222 122.618 83.183 122.511 83.1723 122.556C83.1252 122.75 83.593 122.605 83.7123 122.555C83.857 122.493 83.4209 122.606 83.3614 122.655C83.3442 122.67 83.3834 122.685 83.3797 122.683C83.2298 122.584 82.7562 122.677 82.5389 122.749C82.4742 122.77 82.4422 122.865 82.3444 122.898C82.2977 122.914 82.2515 122.91 82.2444 122.89C82.1896 122.738 82.5236 122.636 82.7423 122.539C82.8935 122.472 82.2949 122.589 82.1029 122.623C82.0481 122.633 82.0767 122.595 82.1101 122.561C82.1803 122.49 82.2597 122.429 82.2804 122.414C82.2988 122.402 82.1745 122.461 82.1503 122.478C81.9288 122.628 82.8496 122.125 82.9153 121.936C82.9961 121.705 83.2006 121.547 83.3044 121.343C83.396 121.163 83.5438 120.842 83.6702 120.543C83.8604 120.093 84.1401 119.614 84.3475 119.274C84.5027 119.02 84.5157 118.802 84.5553 118.538C84.6083 118.185 84.6297 117.881 84.6222 117.754C84.6168 117.664 84.5821 117.357 84.537 116.87C84.5027 116.5 84.4486 116.045 84.4337 115.538C84.4182 115.012 84.1354 114.686 83.9989 114.59C83.9796 114.576 83.961 114.625 83.9543 114.624C83.921 114.618 83.9124 114.512 83.8678 114.438C83.863 114.409 83.8944 114.396 83.9657 114.391C84.037 114.386 84.1471 114.388 84.2448 114.323" stroke="black" stroke-linecap="round"/>
<path d="M82.2956 122.413C82.3054 122.366 82.5754 122.081 82.8298 121.751C82.8921 121.67 82.9136 121.536 82.9213 121.485C82.929 121.435 82.9016 121.459 82.8726 121.498C82.7285 121.694 82.5676 121.912 82.344 122.071C82.1432 122.213 82.8725 121.885 83.0194 121.668C83.0626 121.604 83.1191 121.548 83.1257 121.535C83.1323 121.521 83.0899 121.553 83.0693 121.551C82.8313 121.524 83.6661 120.749 83.8812 120.492C83.9702 120.331 84.0445 120.19 84.1735 120.034C84.2829 119.908 84.4815 119.687 84.6862 119.458" stroke="black" stroke-linecap="round"/>
<path d="M83.4153 114.858C83.476 114.888 83.7293 114.978 84.1273 115.222C84.3434 115.355 84.4392 115.494 84.4721 115.557C84.5953 115.794 84.4744 116.172 84.4147 116.222C84.344 116.282 84.0778 115.748 83.8138 115.496C83.3677 115.07 84.3312 116.616 84.3545 116.655C84.4726 116.85 84.0508 116.187 83.9535 115.883C83.9308 115.812 83.9235 115.746 83.9162 115.692C83.9089 115.638 83.9065 115.595 83.9811 115.915C84.0556 116.235 84.2072 116.919 84.2889 117.394C84.3705 117.869 84.3777 118.113 84.3813 118.222C84.3948 118.622 84.1447 116.828 84.1727 116.704C84.1836 116.656 84.2305 116.893 84.2586 117.13C84.2924 117.415 84.206 118.059 84.1095 118.63C83.9981 119.29 84.187 117.699 84.2035 117.661C84.2271 117.607 84.144 118.111 84.0251 118.79C83.903 119.488 83.696 119.902 83.6538 119.962C83.4699 120.224 83.7807 119.439 83.8406 119.339C83.867 119.295 83.8889 119.267 83.8784 119.371C83.8057 120.097 83.4976 120.574 83.3075 120.778C83.2884 120.799 83.315 120.653 83.3315 120.551C83.3479 120.45 83.3572 120.353 83.2922 120.495C83.2272 120.637 83.0876 121.021 83.0401 121.173C82.9927 121.326 83.0416 121.236 83.1873 120.845C83.3331 120.454 83.5741 119.766 83.6829 119.438C83.7916 119.11 83.7608 119.163 83.7118 119.284C83.6628 119.405 83.5967 119.592 83.5484 119.709C83.4811 119.873 83.6011 119.242 83.8261 118.291C83.8928 118.009 83.8617 118.136 83.8162 118.273C83.7706 118.409 83.7114 118.552 83.7084 118.517C83.6392 117.693 83.9055 116.968 83.8686 116.995C83.8021 117.042 83.7867 117.274 83.7645 117.364C83.67 117.744 83.6903 116.044 83.664 115.969C83.6311 115.875 83.6565 116.258 83.6635 116.377C83.6851 116.743 83.31 115.435 83.3238 115.426C83.3471 115.41 83.3843 115.522 83.3466 115.439C83.309 115.357 83.1904 115.115 83.1433 115.023C83.0991 114.937 83.3172 115.275 83.4187 115.332C83.5408 115.401 83.2995 115.024 83.2226 114.924C83.1019 114.767 83.5684 115.487 83.7138 115.952C83.8118 116.265 83.7856 116.635 83.7832 116.928C83.7819 117.089 83.488 116.639 83.2347 116.422C83.0198 116.239 83.6161 117.779 83.7995 118.35C83.9935 118.954 83.9497 119.062 83.8741 119.505C83.8163 119.844 83.5886 120.072 83.289 120.327C83.2496 120.361 83.2534 120.301 83.2567 120.315C83.3127 120.553 83.1259 120.857 82.9168 121.19C82.6384 121.633 82.5289 121.637 82.3865 121.95C82.2827 122.178 82.1526 122.314 82.0431 122.349C81.8305 122.417 81.6447 122.348 81.6154 122.34C81.5607 122.325 81.7596 122.25 81.8488 122.219C81.9867 122.171 81.3191 122.227 81.1426 122.306C81.0974 122.326 81.3874 122.288 81.5856 122.269C81.8688 122.242 80.8297 122.266 80.7449 122.282C80.5287 122.324 81.5493 122.163 81.9074 122.029C82.0126 121.99 81.9467 121.971 81.8946 121.971C81.8425 121.971 81.8022 121.98 81.7977 121.984C81.6988 122.063 82.1971 121.854 82.4453 121.687C82.4962 121.653 82.5199 121.614 82.5189 121.589C82.5179 121.563 82.487 121.547 82.4533 121.547C82.3814 121.549 82.3048 121.621 82.2786 121.659C82.0929 121.925 82.8576 121.226 82.9228 121.12C82.9261 121.115 82.9193 121.169 82.9284 121.172C82.9781 121.185 83.0689 120.864 83.1794 120.543C83.1953 120.497 83.1028 120.777 82.9905 121.144C82.9493 121.279 82.9334 121.306 82.959 121.17C83.0417 120.73 83.1371 120.374 83.1192 120.382C82.8907 120.486 82.6824 120.997 82.3124 121.394C82.1582 121.559 82.0605 121.641 82.0233 121.671C82.012 121.68 82.0544 121.62 82.066 121.586C82.0695 121.576 82.0164 121.599 81.992 121.63C81.9677 121.66 81.9606 121.702 81.9709 121.711C82.0703 121.793 82.3546 121.34 82.7994 120.979C83.0328 120.789 83.0897 120.618 83.0978 120.556C83.1035 120.513 82.9392 120.654 82.8659 120.674C82.786 120.697 82.9804 120.322 83.0225 120.213C83.0646 120.104 83.0409 120.164 83.0263 120.212C83.0117 120.259 83.0069 120.292 83.0196 120.266C83.1342 120.032 83.2133 119.857 83.33 119.718C83.5007 119.514 83.5384 119.339 83.608 119.159C83.6987 118.958 83.7598 118.786 83.8538 118.554C83.8845 118.473 83.9194 118.366 83.9625 118.199" stroke="black" stroke-linecap="round"/>
<path d="M83.9189 117.897C83.9071 117.888 83.8952 117.878 83.8761 117.858C83.8569 117.837 83.8308 117.807 83.8138 117.773C83.7968 117.739 83.7897 117.704 83.7824 117.653" stroke="black" stroke-linecap="round"/>
<path d="M83.0425 116.317C83.0401 116.24 83.0399 116.054 83.0292 115.873C83.0179 115.682 82.9708 115.454 82.9025 115.216C82.815 115.055 82.7386 114.959 82.6764 114.877C82.6521 114.837 82.6426 114.801 82.6257 114.743" stroke="black" stroke-linecap="round"/>
<path d="M63.7983 121.741C63.7502 121.709 63.4022 121.569 63.1934 121.431C63.146 121.4 63.1233 121.312 63.1247 121.288C63.1347 121.117 63.5297 121.387 63.7472 121.508C63.8297 121.554 63.8934 121.584 63.9637 121.582C63.9988 121.582 64.0317 121.569 64.0175 121.569C63.8365 121.566 63.6271 121.771 63.3894 121.907C63.2017 122.014 62.8782 121.901 62.5222 121.879C62.1512 121.856 61.9034 121.863 61.7069 121.854C61.5625 121.847 61.6154 121.611 61.5402 121.551C61.3453 121.397 60.791 121.579 60.4867 121.68C60.3476 121.726 60.1478 121.686 60.0084 121.729C59.8465 121.779 60.4699 121.674 60.7855 121.536C60.8499 121.508 60.8735 121.482 60.8676 121.48C60.7453 121.445 60.4167 121.586 60.2465 121.624C60.3426 121.602 60.6018 121.537 60.7792 121.486C60.9566 121.434 61.0444 121.398 61.2281 121.375" stroke="black" stroke-linecap="round"/>
<path d="M63.5931 116.794C63.7711 116.724 64.1743 116.578 64.4238 116.542C64.4858 116.533 64.5302 116.513 64.5244 116.499C64.426 116.271 63.9278 116.492 63.7535 116.555C63.5783 116.619 63.5165 116.831 63.2326 117.033C63.1678 117.079 63.1397 117.106 63.139 117.101C63.1315 117.053 63.2052 116.977 63.2099 116.892C63.2121 116.853 63.1859 116.822 63.1447 116.803C62.8283 116.661 62.3116 116.923 62.1117 116.854C61.68 116.705 61.0207 116.613 60.776 116.542C60.5367 116.473 60.378 116.427 60.3322 116.438C60.1011 116.491 60.8468 116.687 60.9621 116.777C61.0363 116.895 61.1173 117.005 61.2209 117.082C61.2819 117.12 61.3599 117.158 61.5049 117.254" stroke="black" stroke-linecap="round"/>
<path d="M56.0075 114.587C56.004 114.586 56.0005 114.585 55.9935 114.578C55.9866 114.572 55.9761 114.56 56.0164 114.533C56.1394 114.447 56.2908 114.398 56.403 114.364C56.6624 114.284 56.8226 114.347 56.9248 114.341C57.0231 114.336 57.081 114.292 57.1377 114.264C57.1636 114.251 57.1797 114.234 57.1283 114.242C56.7999 114.295 56.7015 114.36 56.4003 114.378C56.2724 114.385 56.1992 114.43 56.1256 114.457C56.074 114.476 55.9072 114.492 55.667 114.514C55.4876 114.531 55.3529 114.53 55.2772 114.546C55.2606 114.549 55.3759 114.572 55.5997 114.566C55.7551 114.561 55.9951 114.539 56.1846 114.532C56.5057 114.521 56.7076 114.532 56.8651 114.513C56.9566 114.5 57.0717 114.479 57.3178 114.463C57.5638 114.446 57.9373 114.434 58.3221 114.422" stroke="black" stroke-linecap="round"/>
<path d="M66.2687 113.858C66.3276 113.887 66.4158 113.917 66.5478 113.936C66.6569 113.952 66.7383 114.003 66.8456 114.034C66.8704 114.041 66.888 114.041 66.8735 114.041C66.8123 114.041 66.5538 114.006 66.2205 113.952C66.0015 113.916 65.7417 113.772 65.552 113.714C65.5008 113.698 65.4086 113.704 65.4385 113.731C65.4685 113.757 65.621 113.815 65.9386 113.895C66.2562 113.976 66.7343 114.079 67.0012 114.132C67.3085 114.194 67.4155 114.189 67.535 114.188C67.7389 114.187 67.9957 114.236 68.1742 114.256C68.2959 114.249 68.489 114.253 68.6835 114.272C68.7596 114.281 68.7895 114.288 68.8204 114.295" stroke="black" stroke-linecap="round"/>
<path d="M76.5368 322.868C76.6074 323.005 76.9201 323.69 77.0997 324.244C77.3512 325.02 77.1353 326.051 76.914 326.95C76.7062 327.793 76.5055 327.998 76.4334 328.17C76.3262 328.426 77.2668 326.653 77.4855 325.446C77.5301 325.2 77.5667 325.103 77.625 325.111C78.6149 325.242 78.6041 327.457 78.7587 327.625C78.8135 327.684 78.8781 327.62 78.909 327.407C78.9399 327.195 78.95 326.818 78.8984 326.161C78.7738 324.574 78.5345 323.389 78.3646 323.265C78.2503 323.181 78.1845 323.84 78.0572 323.834C77.93 323.829 77.7702 323.34 77.7481 323.255C77.6813 322.996 78.1167 324.088 78.3374 324.399C78.3961 324.482 78.4116 324.354 78.373 324.217C78.2871 323.911 77.9743 323.451 77.8146 323.256C77.3505 322.687 78.5084 324.564 78.4766 324.558C77.4707 324.393 77.8734 323.377 77.8778 323.249C77.8799 323.188 77.9528 323.15 78.0415 323.167C78.1303 323.184 78.2508 323.259 78.328 323.346C78.4687 323.504 78.4664 323.748 78.4536 323.979C78.4475 324.09 78.4153 324.185 78.3536 324.242C78.2919 324.299 78.1948 324.313 78.1013 324.283C77.674 324.143 77.5382 323.531 77.4213 323.089C77.3952 322.991 77.4281 322.901 77.4735 322.899C77.62 322.892 77.692 323.15 77.73 323.337C77.7515 323.444 77.763 323.575 77.7068 323.45C77.6507 323.326 77.523 322.943 77.6311 322.88C78.6292 322.305 79.138 323.821 79.2635 324.09C79.2966 324.161 79.1794 324.257 79.1299 324.268C79.0803 324.278 79.0497 324.206 79.0414 324.095C79.0004 323.543 79.2307 323.178 79.3319 323.029C79.3789 322.959 79.4531 322.93 79.532 322.945C79.6108 322.959 79.7013 323.024 79.7629 323.121C80.0504 323.572 79.7791 324.273 79.5959 324.688C79.561 324.767 79.4802 324.785 79.4409 324.495C79.3197 323.6 79.4004 322.852 79.4863 322.737C79.5903 322.598 79.7724 323.186 79.9318 323.976C80.2231 325.419 80.2426 326.424 80.165 326.432C79.2771 326.52 79.5115 324.886 79.5287 324.841C79.7395 324.282 79.8292 326.393 79.7629 327.154C79.7366 327.456 79.5335 327.643 79.3765 327.729C79.3037 327.769 79.2144 327.724 79.1672 327.655C78.747 327.037 79.2088 325.86 79.2619 325.618C79.2851 325.513 79.3201 325.447 79.31 325.564C79.2344 326.438 78.9387 326.781 78.7971 326.936C78.7329 327.006 78.6605 327.035 78.5727 326.905C78.4848 326.775 78.3775 326.479 78.3145 326.376C78.1944 326.181 78.0458 326.903 77.8708 327.116C77.7451 327.269 77.5037 327.068 77.408 327.21C77.3018 327.368 77.3889 327.821 77.4317 327.866C77.9675 328.418 77.7946 326.926 77.8755 326.886C78.0007 326.823 77.9515 327.382 77.9787 327.654C78.0056 327.923 78.2347 327.084 78.3258 327.006C78.4058 326.937 78.5137 327.297 78.6275 327.558C78.6911 327.643 78.7664 327.632 78.8153 327.593C78.8642 327.554 78.8843 327.487 78.874 327.571" stroke="black" stroke-linecap="round"/>
<path d="M81.0634 326.264C80.9147 325.992 80.6613 325.594 80.5991 325.452C80.5682 325.382 80.5978 325.295 80.6307 325.225C80.6635 325.155 80.7137 325.099 80.7799 325.062C80.846 325.025 80.9264 325.01 81.0311 325.037C81.2738 325.101 82.108 325.744 83.1311 326.501C83.4351 326.726 83.3158 326.608 83.1381 326.483C82.284 325.879 81.1387 325.703 80.5246 325.797C79.4639 325.96 82.4613 327.862 82.3563 327.973C82.194 328.146 81.4258 327.964 80.7916 327.918C80.4547 327.894 81.6741 328.217 81.9876 328.255C82.1253 328.271 82.2216 328.261 82.1022 328.194C81.9828 328.127 81.6453 327.998 80.9492 327.848C80.2532 327.698 79.209 327.53 78.7904 327.405C78.5305 327.327 80.0046 326.936 81.8746 326.649C82.8532 326.498 83.2235 326.539 83.2946 326.614C83.7146 327.061 82.3535 327.217 82.2365 327.313C82.4429 326.978 82.9301 326.286 83.3429 325.97C83.4401 325.907 83.5256 325.861 83.6431 325.706" stroke="black" stroke-linecap="round"/>
<path d="M75.5396 322.702C75.6641 322.779 76.0225 323.089 76.4052 323.427C76.6945 323.682 76.7769 324.11 76.7862 324.577C76.7962 325.082 76.7164 325.474 76.6192 325.869C76.5227 326.261 76.4369 326.67 76.2971 326.978C76.1293 327.349 75.8897 327.574 75.8125 327.621C75.5289 327.794 76.1101 327 76.2687 326.653C76.4138 326.335 76.5467 326.009 76.598 325.568C76.6491 325.128 76.619 324.64 76.5765 324.133C76.5407 323.704 76.2245 323.466 76.0175 323.213C75.9263 323.083 75.8107 322.93 75.6681 322.775C75.5977 322.705 75.5315 322.651 75.4812 322.595" stroke="black" stroke-linecap="round"/>
<path d="M54.3425 41.8907C53.6943 42.3828 51.6289 44.8173 48.4566 52.4869C47.1229 57.0208 46.3716 60.4409 45.9146 62.7225C45.6043 63.9075 45.1349 65.1478 44.4734 67.4744" stroke="#CC9F63" stroke-width="2" stroke-linecap="round"/>
<path d="M34.3377 55.5C26.3377 76.5 22.8377 97 22.8377 97C22.8377 97 28.3377 66 32.8377 53.5C37.3377 41 49.3378 10 53.3377 12.5C57.3376 15 42.3377 34.5 34.3377 55.5Z" fill="#EEE0B9"/>
<path d="M21.8377 167C19.8377 187.5 18.8377 214 18.8377 214C18.8377 214 18.3377 164.49 18.3377 152C18.3377 139.51 19.3377 129.5 24.8377 129.5C30.3377 129.5 23.8377 146.5 21.8377 167Z" fill="#FFF7E1"/>
</svg>
